HIERARCHY
ROOT Hips
{
  OFFSET 5.80788e-005 67.184 3.4734
  CHANNELS 6 Xposition Yposition Zposition Zrotation Xrotation Yrotation
  JOINT Chest
  {
    OFFSET 0 8.7983 -4.7612
    CHANNELS 6 Xposition Yposition Zposition Zrotation Xrotation Yrotation
    JOINT Chest2
    {
      OFFSET 0 8.0291 0.4195
      CHANNELS 6 Xposition Yposition Zposition Zrotation Xrotation Yrotation
      JOINT Chest3
      {
        OFFSET 0 9.9351 -2.2114
        CHANNELS 6 Xposition Yposition Zposition Zrotation Xrotation Yrotation
        JOINT Neck
        {
          OFFSET 0 22.3885 -0.4656
          CHANNELS 6 Xposition Yposition Zposition Zrotation Xrotation Yrotation
          JOINT Head
          {
            OFFSET -0.0001 12.643 3.4389
            CHANNELS 6 Xposition Yposition Zposition Zrotation Xrotation Yrotation
            End Site
            {
              OFFSET 0.0001 17.6655 0.5274
            }
          }
        }
        JOINT LeftCollar
        {
          OFFSET 2.2603 21.606 7.4023
          CHANNELS 6 Xposition Yposition Zposition Zrotation Xrotation Yrotation
          JOINT LeftShoulder
          {
            OFFSET 13.5163 -1.1332 -5.0146
            CHANNELS 6 Xposition Yposition Zposition Zrotation Xrotation Yrotation
            JOINT LeftElbow
            {
              OFFSET -0.0995 -28.05 -0.2431
              CHANNELS 6 Xposition Yposition Zposition Zrotation Xrotation Yrotation
              JOINT LeftWrist
              {
                OFFSET 0.0679 -23.3996 -0.1402
                CHANNELS 6 Xposition Yposition Zposition Zrotation Xrotation Yrotation
                JOINT LeftFinger1
                {
                  OFFSET 0.7932 -9.069 2.5189
                  CHANNELS 6 Xposition Yposition Zposition Zrotation Xrotation Yrotation
                  JOINT LeftFinger11
                  {
                    OFFSET -0.8272 -3.3923 0.5977
                    CHANNELS 6 Xposition Yposition Zposition Zrotation Xrotation Yrotation
                    JOINT LeftFinger12
                    {
                      OFFSET -0.5649 -2.3158 0.4082
                      CHANNELS 6 Xposition Yposition Zposition Zrotation Xrotation Yrotation
                      End Site
                      {
                        OFFSET -0.4919 -1.6479 0.2673
                      }
                    }
                  }
                }
                JOINT LeftFinger2
                {
                  OFFSET 0.9159 -9.2044 0.2193
                  CHANNELS 6 Xposition Yposition Zposition Zrotation Xrotation Yrotation
                  JOINT LeftFinger21
                  {
                    OFFSET 0.0117 -4.1944 -0.0248
                    CHANNELS 6 Xposition Yposition Zposition Zrotation Xrotation Yrotation
                    JOINT LeftFinger22
                    {
                      OFFSET 0.0071 -2.3249 -0.0142
                      CHANNELS 6 Xposition Yposition Zposition Zrotation Xrotation Yrotation
                      End Site
                      {
                        OFFSET -0.1475 -2.0882 0.0028
                      }
                    }
                  }
                }
                JOINT LeftFinger3
                {
                  OFFSET 0.6113 -8.7231 -2.0637
                  CHANNELS 6 Xposition Yposition Zposition Zrotation Xrotation Yrotation
                  JOINT LeftFinger31
                  {
                    OFFSET -0.1927 -3.8059 -0.2383
                    CHANNELS 6 Xposition Yposition Zposition Zrotation Xrotation Yrotation
                    JOINT LeftFinger32
                    {
                      OFFSET -0.1091 -2.1688 -0.1362
                      CHANNELS 6 Xposition Yposition Zposition Zrotation Xrotation Yrotation
                      End Site
                      {
                        OFFSET -0.2358 -1.9176 -0.0906
                      }
                    }
                  }
                }
                JOINT LeftFinger4
                {
                  OFFSET -0.6151 -8.0947 -3.5641
                  CHANNELS 6 Xposition Yposition Zposition Zrotation Xrotation Yrotation
                  JOINT LeftFinger41
                  {
                    OFFSET -0.4882 -2.341 -0.6462
                    CHANNELS 6 Xposition Yposition Zposition Zrotation Xrotation Yrotation
                    JOINT LeftFinger42
                    {
                      OFFSET -0.3575 -1.7167 -0.4742
                      CHANNELS 6 Xposition Yposition Zposition Zrotation Xrotation Yrotation
                      End Site
                      {
                        OFFSET -0.4187 -1.5237 -0.3496
                      }
                    }
                  }
                }
                JOINT LeftFinger0
                {
                  OFFSET -1.42 -1.8761 1.4223
                  CHANNELS 6 Xposition Yposition Zposition Zrotation Xrotation Yrotation
                  JOINT LeftFinger01
                  {
                    OFFSET -1.1471 -3.4929 2.6334
                    CHANNELS 6 Xposition Yposition Zposition Zrotation Xrotation Yrotation
                    JOINT LeftFinger02
                    {
                      OFFSET -0.823 -2.3 1.6571
                      CHANNELS 6 Xposition Yposition Zposition Zrotation Xrotation Yrotation
                      End Site
                      {
                        OFFSET -0.5822 -1.6914 1.1582
                      }
                    }
                  }
                }
              }
            }
          }
        }
        JOINT RightCollar
        {
          OFFSET -2.2603 21.606 7.4023
          CHANNELS 6 Xposition Yposition Zposition Zrotation Xrotation Yrotation
          JOINT RightShoulder
          {
            OFFSET -13.5187 -1.1334 -5.0155
            CHANNELS 6 Xposition Yposition Zposition Zrotation Xrotation Yrotation
            JOINT RightElbow
            {
              OFFSET 0.0994 -28.0499 -0.2431
              CHANNELS 6 Xposition Yposition Zposition Zrotation Xrotation Yrotation
              JOINT RightWrist
              {
                OFFSET -0.0679 -23.3996 -0.1402
                CHANNELS 6 Xposition Yposition Zposition Zrotation Xrotation Yrotation
                JOINT RightFinger1
                {
                  OFFSET -0.7932 -9.0691 2.5189
                  CHANNELS 6 Xposition Yposition Zposition Zrotation Xrotation Yrotation
                  JOINT RightFinger11
                  {
                    OFFSET 0.8272 -3.3923 0.5977
                    CHANNELS 6 Xposition Yposition Zposition Zrotation Xrotation Yrotation
                    JOINT RightFinger12
                    {
                      OFFSET 0.565 -2.3158 0.4082
                      CHANNELS 6 Xposition Yposition Zposition Zrotation Xrotation Yrotation
                      End Site
                      {
                        OFFSET 0.4919 -1.6479 0.2673
                      }
                    }
                  }
                }
                JOINT RightFinger2
                {
                  OFFSET -0.916 -9.2044 0.2193
                  CHANNELS 6 Xposition Yposition Zposition Zrotation Xrotation Yrotation
                  JOINT RightFinger21
                  {
                    OFFSET -0.0117 -4.1944 -0.0248
                    CHANNELS 6 Xposition Yposition Zposition Zrotation Xrotation Yrotation
                    JOINT RightFinger22
                    {
                      OFFSET -0.0071 -2.3249 -0.0142
                      CHANNELS 6 Xposition Yposition Zposition Zrotation Xrotation Yrotation
                      End Site
                      {
                        OFFSET 0.1475 -2.0882 0.0028
                      }
                    }
                  }
                }
                JOINT RightFinger3
                {
                  OFFSET -0.6113 -8.7231 -2.0637
                  CHANNELS 6 Xposition Yposition Zposition Zrotation Xrotation Yrotation
                  JOINT RightFinger31
                  {
                    OFFSET 0.1927 -3.8059 -0.2383
                    CHANNELS 6 Xposition Yposition Zposition Zrotation Xrotation Yrotation
                    JOINT RightFinger32
                    {
                      OFFSET 0.1091 -2.1688 -0.1362
                      CHANNELS 6 Xposition Yposition Zposition Zrotation Xrotation Yrotation
                      End Site
                      {
                        OFFSET 0.2358 -1.9176 -0.0906
                      }
                    }
                  }
                }
                JOINT RightFinger4
                {
                  OFFSET 0.6151 -8.0947 -3.564
                  CHANNELS 6 Xposition Yposition Zposition Zrotation Xrotation Yrotation
                  JOINT RightFinger41
                  {
                    OFFSET 0.4882 -2.341 -0.6462
                    CHANNELS 6 Xposition Yposition Zposition Zrotation Xrotation Yrotation
                    JOINT RightFinger42
                    {
                      OFFSET 0.3574 -1.7166 -0.4742
                      CHANNELS 6 Xposition Yposition Zposition Zrotation Xrotation Yrotation
                      End Site
                      {
                        OFFSET 0.4187 -1.5237 -0.3496
                      }
                    }
                  }
                }
                JOINT RightFinger0
                {
                  OFFSET 1.4199 -1.8761 1.4221
                  CHANNELS 6 Xposition Yposition Zposition Zrotation Xrotation Yrotation
                  JOINT RightFinger01
                  {
                    OFFSET 1.1472 -3.4929 2.6336
                    CHANNELS 6 Xposition Yposition Zposition Zrotation Xrotation Yrotation
                    JOINT RightFinger02
                    {
                      OFFSET 0.8229 -2.3 1.6571
                      CHANNELS 6 Xposition Yposition Zposition Zrotation Xrotation Yrotation
                      End Site
                      {
                        OFFSET 0.5822 -1.6914 1.1582
                      }
                    }
                  }
                }
              }
            }
          }
        }
      }
    }
  }
  JOINT RightHip
  {
    OFFSET -9.412 3.9771 -0.7758
    CHANNELS 6 Xposition Yposition Zposition Zrotation Xrotation Yrotation
    JOINT RightKnee
    {
      OFFSET -0.7531 -40.938 0
      CHANNELS 6 Xposition Yposition Zposition Zrotation Xrotation Yrotation
      JOINT RightAnkle
      {
        OFFSET 0 -40.1986 0
        CHANNELS 6 Xposition Yposition Zposition Zrotation Xrotation Yrotation
        JOINT RightToe
        {
          OFFSET 0 -4.4182 9.239
          CHANNELS 6 Xposition Yposition Zposition Zrotation Xrotation Yrotation
          End Site
          {
            OFFSET 0 0 6.1981
          }
        }
      }
    }
  }
  JOINT LeftHip
  {
    OFFSET 9.4119 3.9773 -0.7758
    CHANNELS 6 Xposition Yposition Zposition Zrotation Xrotation Yrotation
    JOINT LeftKnee
    {
      OFFSET 0.7532 -40.9383 0
      CHANNELS 6 Xposition Yposition Zposition Zrotation Xrotation Yrotation
      JOINT LeftAnkle
      {
        OFFSET 0 -40.1986 0
        CHANNELS 6 Xposition Yposition Zposition Zrotation Xrotation Yrotation
        JOINT LeftToe
        {
          OFFSET 0 -4.4182 9.239
          CHANNELS 6 Xposition Yposition Zposition Zrotation Xrotation Yrotation
          End Site
          {
            OFFSET 0 0 6.1981
          }
        }
      }
    }
  }
}
MOTION
Frames:	4
Frame Time:	0.0333333
5.80788e-005 67.184 3.4734 0 0 -0 0 8.7983 -4.7612 0 0 -0 0 8.0291 0.4195 0 0 -0 0 9.9351 -2.2114 0 0 -0 0 22.3885 -0.4656 0 0 -0 -0.0001 12.643 3.4389 0 0 -0 2.2603 21.606 7.4023 0 0 -12.5014 13.5163 -1.1332 -5.0146 88.1196 14.2451 10.6914 -0.0995 -28.05 -0.2431 -0.00160068 -0.00239207 0.000740045 0.0679 -23.3996 -0.1402 -8.4365e-005 7.00714e-005 -9.52055e-007 0.7932 -9.069 2.5189 9.93923e-017 -1.98785e-016 -1.59028e-015 -0.8272 -3.3923 0.5977 9.93923e-017 -5.96354e-016 -1.59028e-015 -0.5649 -2.3158 0.4082 -9.93923e-017 -5.96354e-016 -1.59028e-015 0.9159 -9.2044 0.2193 9.93923e-017 -1.98785e-016 -1.59028e-015 0.0117 -4.1944 -0.0248 -0.0128176 0.00232552 8.52707e-005 0.0071 -2.3249 -0.0142 9.93923e-017 5.96354e-016 -0 0.6113 -8.7231 -2.0637 9.93923e-017 -1.98785e-016 -1.59028e-015 -0.1927 -3.8059 -0.2383 -0.0160551 0.00299681 0.000857156 -0.1091 -2.1688 -0.1362 -2.48481e-016 0 3.18055e-015 -0.6151 -8.0947 -3.5641 9.93923e-017 -1.98785e-016 -1.59028e-015 -0.4882 -2.341 -0.6462 -0.0125865 0.0031206 0.00282719 -0.3575 -1.7167 -0.4742 0 1.98785e-016 -0 -1.42 -1.8761 1.4223 9.93923e-017 -1.98785e-016 -1.59028e-015 -1.1471 -3.4929 2.6334 9.93923e-017 -5.96354e-016 -1.59028e-015 -0.823 -2.3 1.6571 -9.93923e-017 -5.96354e-016 -1.59028e-015 -2.2603 21.606 7.4023 -0.865644 0.16582 7.03859 -13.5187 -1.1334 -5.0155 -88.0329 10.2057 -10.5567 0.0994 -28.0499 -0.2431 0.0015593 -0.00248883 -0.000788628 -0.0679 -23.3996 -0.1402 7.87605e-005 4.10553e-005 1.24965e-005 -0.7932 -9.0691 2.5189 -3.97569e-016 -7.95139e-016 3.18055e-015 0.8272 -3.3923 0.5977 -1.98785e-016 -3.97569e-016 3.18055e-015 0.565 -2.3158 0.4082 -1.98785e-016 0 3.18055e-015 -0.916 -9.2044 0.2193 -3.97569e-016 -7.95139e-016 3.18055e-015 -0.0117 -4.1944 -0.0248 0.0129473 0.00231697 -8.70038e-005 -0.0071 -2.3249 -0.0142 9.93923e-017 -7.95139e-016 1.59028e-015 -0.6113 -8.7231 -2.0637 -3.97569e-016 -7.95139e-016 3.18055e-015 0.1927 -3.8059 -0.2383 0.0163314 0.00303369 -0.000872333 0.1091 -2.1688 -0.1362 3.97569e-016 7.95139e-016 -3.18055e-015 0.6151 -8.0947 -3.564 -3.97569e-016 -7.95139e-016 3.18055e-015 0.4882 -2.341 -0.6462 0.0145763 0.00367772 -0.00326275 0.3574 -1.7166 -0.4742 9.93923e-017 -3.97569e-016 -0 1.4199 -1.8761 1.4221 -3.97569e-016 -7.95139e-016 3.18055e-015 1.1472 -3.4929 2.6336 -1.98785e-016 -3.97569e-016 3.18055e-015 0.8229 -2.3 1.6571 -1.98785e-016 0 3.18055e-015 -9.412 3.9771 -0.7758 3.42485 1.36937 -0.0640303 -0.7531 -40.938 0 0.000136572 0.69354 0.00145564 1.77636e-015 -40.1986 -1.11022e-016 -3.42573 -2.06297 -0.0607933 8.88178e-016 -4.4182 9.239 -3.19502e-024 0 -1.48106e-024 9.4119 3.9773 -0.7758 -3.42498 1.36123 0.0639712 0.7532 -40.9383 2.22045e-016 -6.769e-005 0.712612 -0.0012277 8.88179e-016 -40.1986 0 3.42582 -2.07388 0.0612819 -8.88178e-016 -4.4182 9.239 2.55305e-023 0 -2.31416e-026 
-8.64589 20.3385 3.62576 -66.6667 -2.27777e-006 2.90186e-007 -3.55271e-015 8.7983 -4.7612 1.12618 4.5261 -4.12898 0 8.0291 0.4195 2.58946 8.95791 -8.38539 3.55271e-015 9.9351 -2.2114 2.58946 8.95794 -8.38542 0 22.3885 -0.4656 6.64335 -1.46446 0.230031 -0.0001 12.643 3.4389 -0.0143796 11.1288 0.00135195 2.2603 21.606 7.4023 3.51484 -18.6056 5.70607 13.5163 -1.1332 -5.0146 31.1853 -24.4215 2.87742 -0.0995 -28.05 -0.2431 -16.0065 2.91121 2.29367 0.0679 -23.3996 -0.1402 0.00479624 -0.00191212 0.602445 0.7932 -9.069 2.5189 1.36803e-005 7.16398e-006 -2.11093e-007 -0.8272 -3.3923 0.5977 1.17329e-007 -4.77704e-007 -1.94369e-007 -0.5649 -2.3158 0.4082 7.15625e-015 -1.7471e-006 -6.36111e-015 0.9159 -9.2044 0.2193 1.36803e-005 7.16398e-006 -2.11093e-007 0.0117 -4.1944 -0.0248 -0.0128415 0.00232301 8.55117e-005 0.0071 -2.3249 -0.0142 -3.06321e-006 4.33978e-006 4.714e-006 0.6113 -8.7231 -2.0637 1.36803e-005 7.16398e-006 -2.11093e-007 -0.1927 -3.8059 -0.2383 -0.0160467 0.00299449 0.000858918 -0.1091 -2.1688 -0.1362 5.56597e-015 3.18055e-015 -1.27222e-014 -0.6151 -8.0947 -3.5641 1.36803e-005 7.16398e-006 -2.11093e-007 -0.4882 -2.341 -0.6462 -0.0126274 0.00313191 0.00283389 -0.3575 -1.7167 -0.4742 3.18055e-015 -1.7876e-006 -6.36111e-015 -1.42 -1.8761 1.4223 1.36803e-005 7.16398e-006 -2.11093e-007 -1.1471 -3.4929 2.6334 1.17329e-007 -4.77704e-007 -1.94369e-007 -0.823 -2.3 1.6571 7.15625e-015 -1.7471e-006 -6.36111e-015 -2.2603 21.606 7.4023 -19.3944 -84.3828 -58.3581 -13.5187 -1.1334 -5.0155 -95.375 21.1309 -19.2624 0.0994 -28.0499 -0.2431 23.7524 4.17581 12.2014 -0.0679 -23.3996 -0.1402 -16.8173 18.9014 45.2842 -0.7932 -9.0691 2.5189 9.54166e-015 -7.95139e-015 -9.54166e-015 0.8272 -3.3923 0.5977 3.18055e-015 -7.95139e-015 -6.36111e-015 0.565 -2.3158 0.4082 -1.05934e-030 -9.54166e-015 -6.36111e-015 -0.916 -9.2044 0.2193 9.54166e-015 -7.95139e-015 -9.54166e-015 -0.0117 -4.1944 -0.0248 0.0129482 0.00230957 -9.22306e-005 -0.0071 -2.3249 -0.0142 -0 0 3.18055e-015 -0.6113 -8.7231 -2.0637 9.54166e-015 -7.95139e-015 -9.54166e-015 0.1927 -3.8059 -0.2383 0.0163051 0.00303097 -0.00086519 0.1091 -2.1688 -0.1362 3.18055e-015 3.18055e-015 6.36111e-015 0.6151 -8.0947 -3.564 9.54166e-015 -7.95139e-015 -9.54166e-015 0.4882 -2.341 -0.6462 0.0145741 0.00367284 -0.00325536 0.3574 -1.7166 -0.4742 -9.54166e-015 1.59028e-015 -3.18055e-015 1.4199 -1.8761 1.4221 9.54166e-015 -7.95139e-015 -9.54166e-015 1.1472 -3.4929 2.6336 3.18055e-015 -7.95139e-015 -6.36111e-015 0.8229 -2.3 1.6571 -1.05934e-030 -9.54166e-015 -6.36111e-015 -9.412 3.9771 -0.7758 -4.20198 -12.8336 -0.666729 -0.7531 -40.938 -8.88179e-016 37.8572 35.2945 -67.3516 -3.55271e-015 -40.1986 0 9.23828 22.489 8.98611 3.55271e-015 -4.4182 9.239 1.5095e-006 5.13603e-008 1.06479e-007 9.4119 3.9773 -0.7758 3.2443 5.71233 7.19022 0.7532 -40.9383 -4.44089e-016 1.71935 60.0841 -3.57802 1.77636e-015 -40.1986 3.55271e-015 2.75896 0.882029 2.87778 7.10543e-015 -4.4182 9.239 -4.51669e-006 -3.97064e-006 6.99629e-006 
-9.85011 1.08695 4.01975 -96.6667 -3.9318e-008 2.16781e-007 2.498e-016 8.7983 -4.7612 2.17489 6.1955 -6.13047 1.80411e-016 8.0291 0.4195 5.04977 12.1157 -12.6014 -8.32667e-017 9.9351 -2.2114 5.0498 12.1157 -12.6014 2.22045e-016 22.3885 -0.4656 9.76137 -2.12283 0.33804 -0.0001 12.643 3.4389 0.0507273 16.0425 -0.00486294 2.2603 21.606 7.4023 8.60785 -24.93 15.2589 13.5163 -1.1332 -5.0146 9.86928 -43.9659 -0.488932 -0.0995 -28.05 -0.2431 -21.4856 3.83344 -0.219776 0.0679 -23.3996 -0.1402 0.00611905 -0.00264358 0.917089 0.7932 -9.069 2.5189 9.54166e-015 1.59028e-014 -0 -0.8272 -3.3923 0.5977 6.36111e-015 1.90833e-014 3.18055e-015 -0.5649 -2.3158 0.4082 1.27222e-014 1.90833e-014 -0 0.9159 -9.2044 0.2193 9.54166e-015 1.59028e-014 -0 0.0117 -4.1944 -0.0248 -0.0128019 0.00231958 7.45008e-005 0.0071 -2.3249 -0.0142 0 9.54166e-015 -0 0.6113 -8.7231 -2.0637 9.54166e-015 1.59028e-014 -0 -0.1927 -3.8059 -0.2383 -0.0160402 0.00299044 0.000851058 -0.1091 -2.1688 -0.1362 6.36111e-015 0 3.18055e-015 -0.6151 -8.0947 -3.5641 9.54166e-015 1.59028e-014 -0 -0.4882 -2.341 -0.6462 -0.0125721 0.00311774 0.00282247 -0.3575 -1.7167 -0.4742 0 9.54166e-015 -0 -1.42 -1.8761 1.4223 9.54166e-015 1.59028e-014 -0 -1.1471 -3.4929 2.6334 6.36111e-015 1.90833e-014 3.18055e-015 -0.823 -2.3 1.6571 1.27222e-014 1.90833e-014 -0 -2.2603 21.606 7.4023 -103.955 -52.7397 -161.262 -13.5187 -1.1334 -5.0155 -98.8697 25.9822 -23.159 0.0994 -28.0499 -0.2431 28.8549 5.02321 26.287 -0.0679 -23.3996 -0.1402 -24.316 26.5342 66.077 -0.7932 -9.0691 2.5189 -8.39626e-006 1.49539e-005 1.20178e-005 0.8272 -3.3923 0.5977 4.67404e-006 -1.4151e-005 -2.32623e-006 0.565 -2.3158 0.4082 1.59028e-015 -3.97569e-016 -0 -0.916 -9.2044 0.2193 -8.39626e-006 1.49539e-005 1.20178e-005 -0.0117 -4.1944 -0.0248 0.0129261 0.00234991 -9.22881e-005 -0.0071 -2.3249 -0.0142 9.58787e-006 -3.54051e-005 2.33224e-006 -0.6113 -8.7231 -2.0637 -8.39626e-006 1.49539e-005 1.20178e-005 0.1927 -3.8059 -0.2383 0.0163416 0.00297304 -0.000871645 0.1091 -2.1688 -0.1362 -3.61713e-007 1.37029e-005 -2.04872e-006 0.6151 -8.0947 -3.564 -8.39626e-006 1.49539e-005 1.20178e-005 0.4882 -2.341 -0.6462 0.0146082 0.00365876 -0.00326578 0.3574 -1.7166 -0.4742 -1.59028e-015 -1.78906e-015 -7.95139e-016 1.4199 -1.8761 1.4221 -8.39626e-006 1.49539e-005 1.20178e-005 1.1472 -3.4929 2.6336 4.67404e-006 -1.4151e-005 -2.32623e-006 0.8229 -2.3 1.6571 1.59028e-015 -3.97569e-016 -0 -9.412 3.9771 -0.7758 -7.53352 -18.6875 -0.108379 -0.7531 -40.938 -1.77636e-015 63.9416 19.6561 -90.3249 0 -40.1986 0 10.5584 34.7756 16.0081 3.55271e-015 -4.4182 9.239 3.33387e-006 -8.38939e-007 -1.36168e-007 9.4119 3.9773 -0.7758 5.77245 8.24708 10.5393 0.7532 -40.9383 0 45.573 85.7423 -47.3836 0 -40.1986 0 2.48637 1.28778 4.29749 0 -4.4182 9.239 -1.91214e-007 1.12163e-005 -3.15689e-006 
-9.75955 5.34772 4.3851 -90 -2.43325e-007 5.19346e-010 -8.88179e-016 8.7983 -4.7612 1.9689 5.48875 -5.8576 8.88179e-016 8.0291 0.4195 4.52303 10.7426 -11.9819 0 9.9351 -2.2114 4.52304 10.7426 -11.9819 1.77636e-015 22.3885 -0.4656 9.34536 -1.97498 0.323564 -0.0001 12.643 3.4389 0.195228 14.7409 -0.0185663 2.2603 21.606 7.4023 5.97749 -22.476 12.8214 13.5163 -1.1332 -5.0146 15.0855 -39.134 0.590494 -0.0995 -28.05 -0.2431 -19.9674 3.58087 0.618255 0.0679 -23.3996 -0.1402 0.00580202 -0.00246735 0.833535 0.7932 -9.069 2.5189 -6.36111e-015 9.54166e-015 1.27222e-014 -0.8272 -3.3923 0.5977 -3.18055e-015 -3.18055e-015 1.27222e-014 -0.5649 -2.3158 0.4082 -3.18055e-015 -3.18055e-015 9.54166e-015 0.9159 -9.2044 0.2193 -6.36111e-015 9.54166e-015 1.27222e-014 0.0117 -4.1944 -0.0248 -0.0128283 0.00233437 8.85203e-005 0.0071 -2.3249 -0.0142 -4.5102e-006 -1.60854e-006 -9.50687e-007 0.6113 -8.7231 -2.0637 -6.36111e-015 9.54166e-015 1.27222e-014 -0.1927 -3.8059 -0.2383 -0.0160454 0.00299337 0.000859727 -0.1091 -2.1688 -0.1362 4.79142e-006 9.3452e-006 3.32695e-006 -0.6151 -8.0947 -3.5641 -6.36111e-015 9.54166e-015 1.27222e-014 -0.4882 -2.341 -0.6462 -0.0125835 0.00313222 0.00282355 -0.3575 -1.7167 -0.4742 5.84246e-007 -2.42324e-006 8.30805e-006 -1.42 -1.8761 1.4223 -6.36111e-015 9.54166e-015 1.27222e-014 -1.1471 -3.4929 2.6334 -3.18055e-015 -3.18055e-015 1.27222e-014 -0.823 -2.3 1.6571 -3.18055e-015 -3.18055e-015 9.54166e-015 -2.2603 21.606 7.4023 -105.099 -62.3671 -157.452 -13.5187 -1.1334 -5.0155 -98.2806 24.9078 -22.182 0.0994 -28.0499 -0.2431 28.5946 4.97018 23.2694 -0.0679 -23.3996 -0.1402 -23.2865 23.8377 60.8929 -0.7932 -9.0691 2.5189 3.18055e-015 2.5345e-015 1.19271e-015 0.8272 -3.3923 0.5977 -6.33206e-032 2.80783e-015 1.2921e-015 0.565 -2.3158 0.4082 -6.33206e-032 2.80783e-015 1.2921e-015 -0.916 -9.2044 0.2193 3.18055e-015 2.5345e-015 1.19271e-015 -0.0117 -4.1944 -0.0248 0.0129375 0.00232352 -7.38513e-005 -0.0071 -2.3249 -0.0142 6.36111e-015 -1.41634e-015 -9.93923e-017 -0.6113 -8.7231 -2.0637 3.18055e-015 2.5345e-015 1.19271e-015 0.1927 -3.8059 -0.2383 0.0163494 0.00302306 -0.000863097 0.1091 -2.1688 -0.1362 9.54166e-015 1.51573e-015 1.39149e-015 0.6151 -8.0947 -3.564 3.18055e-015 2.5345e-015 1.19271e-015 0.4882 -2.341 -0.6462 0.0145843 0.00366945 -0.00325775 0.3574 -1.7166 -0.4742 -1.27222e-014 1.81391e-015 -4.96962e-016 1.4199 -1.8761 1.4221 3.18055e-015 2.5345e-015 1.19271e-015 1.1472 -3.4929 2.6336 -6.33206e-032 2.80783e-015 1.2921e-015 0.8229 -2.3 1.6571 -6.33206e-032 2.80783e-015 1.2921e-015 -9.412 3.9771 -0.7758 -6.62335 -17.0136 -0.0956205 -0.7531 -40.938 4.44089e-016 58.9287 24.1816 -87.0101 1.33227e-015 -40.1986 -7.10543e-015 10.8351 32.0257 14.2976 7.10543e-015 -4.4182 9.239 -1.59028e-015 1.59028e-015 -0 9.4119 3.9773 -0.7758 5.25157 8.26894 9.66381 0.7532 -40.9383 0 13.9332 79.9324 -15.864 2.66454e-015 -40.1986 7.10543e-015 2.52291 1.25523 3.943 4.44089e-016 -4.4182 9.239 1.16311e-006 3.34031e-006 1.01861e-006 
